<?xml version="1.0" standalone="no"?>
<!DOCTYPE svg PUBLIC "-//W3C//DTD SVG 20010904//EN"
 "http://www.w3.org/TR/2001/REC-SVG-20010904/DTD/svg10.dtd">
<svg version="1.0" xmlns="http://www.w3.org/2000/svg"
 width="260.000000pt" height="260.000000pt" viewBox="0 0 260.000000 260.000000"
 preserveAspectRatio="xMidYMid meet">
<metadata>
Created by potrace 1.11, written by Peter Selinger 2001-2013
</metadata>
<g transform="translate(0.000000,260.000000) scale(0.100000,-0.100000)"
fill="#000000" stroke="none">
<path d="M1160 2583 c-61 -21 -143 -76 -174 -118 -49 -63 -68 -123 -73 -226
-5 -88 -4 -96 13 -100 11 -2 178 -4 372 -3 294 0 355 3 362 15 14 21 4 138
-15 194 -36 102 -118 189 -217 227 -69 27 -205 32 -268 11z"/>
<path d="M930 2106 c1 -32 17 -33 364 -32 343 1 349 1 356 22 8 20 8 20 -356
20 -249 0 -364 -3 -364 -10z"/>
<path d="M957 2034 c3 -8 13 -18 22 -22 9 -5 153 -8 320 -8 299 1 304 1 318
23 l14 21 -340 1 c-295 0 -339 -2 -334 -15z"/>
<path d="M994 1981 c-2 -2 4 -10 14 -16 12 -9 94 -13 283 -14 227 -1 268 1
279 14 7 8 11 16 9 16 -11 4 -581 4 -585 0z"/>
<path d="M1061 1917 c23 -17 443 -17 461 1 9 9 -40 12 -233 12 -196 -1 -241
-3 -228 -13z"/>
<path d="M1160 1861 c14 -10 101 -26 130 -24 45 1 112 13 127 22 13 7 -23 10
-127 11 -92 0 -140 -4 -130 -9z"/>
<path d="M513 1737 c-29 -46 -53 -87 -53 -93 0 -5 109 -9 272 -8 305 1 313 0
379 -68 l37 -38 139 0 139 0 34 36 c64 68 77 71 380 70 203 -1 270 2 270 10 0
7 -21 49 -47 93 l-48 81 -302 0 c-342 0 -366 -4 -399 -65 l-18 -35 -42 48 -41
47 -324 3 -324 3 -52 -84z"/>
<path d="M509 1566 c0 -12 0 -219 0 -461 0 -368 3 -450 16 -499 32 -122 118
-247 237 -345 l71 -59 38 57 37 56 -22 18 c-100 85 -174 179 -214 274 -22 51
-22 61 -22 515 l0 463 -70 1 c-64 0 -70 -2 -71 -20z"/>
<path d="M732 1580 c-5 -3 -8 -210 -8 -460 l1 -455 34 -70 c33 -67 154 -205
179 -205 9 0 72 92 72 105 0 2 -25 27 -55 56 -101 96 -98 74 -99 588 l-1 446
-58 0 c-32 0 -61 -2 -65 -5z"/>
<path d="M1719 1571 c0 -9 -1 -214 -2 -456 -3 -505 2 -478 -101 -572 l-55 -50
35 -52 c34 -51 35 -51 62 -37 57 29 134 124 175 214 20 46 21 60 22 500 0 249
-2 456 -5 460 -3 4 -33 8 -67 8 -52 1 -63 -1 -64 -15z"/>
<path d="M1941 1580 c-7 -4 -11 -176 -13 -475 l-3 -470 -25 -51 c-39 -78 -106
-164 -170 -217 l-58 -49 31 -49 c17 -28 35 -52 39 -55 5 -3 34 14 64 37 115
89 206 215 245 341 17 55 19 98 19 524 0 255 -3 465 -7 465 -31 5 -114 4 -122
-1z"/>
<path d="M1137 1476 c-2 -6 -3 -222 -2 -480 l1 -469 -131 -216 c-72 -119 -143
-237 -158 -262 l-27 -45 462 3 c254 2 464 5 466 7 3 4 -225 392 -277 471 l-26
40 -1 475 c-1 261 -2 478 -3 481 -1 8 -99 4 -107 -4 -4 -4 -7 -222 -7 -484 l1
-478 92 -155 c51 -85 95 -161 97 -167 4 -10 -45 -13 -227 -13 -182 0 -231 3
-227 12 2 7 46 83 97 168 l93 155 1 473 c0 261 -2 479 -6 485 -8 14 -106 17
-111 3z"/>
</g>
</svg>
